# xmcd
#
# Track frame offsets: 
#        150
#        21155
#        46140
#        67077
#
# Disc length: 1225 seconds
#
# Revision: 0
# Processed by: cddbd v1.5.2PL0 Copyright (c) Steve Scherf et al.
# Submitted via: ExactAudioCopyFreeDBPlugin 1.0
#
DISCID=2f04c704
DTITLE=稲垣潤一 - メリークリスマスが言えない [REMIX VERSION]
DYEAR=1994
DGENRE=JPop
TTITLE0=メリークリスマスが言えない(リミックス・ヴァージョン)
TTITLE1=永遠より長いキス
TTITLE2=メリークリスマスが言えない(オリジナル・カラオケ)
TTITLE3=永遠より長いキス(オリジナル・カラオケ)
EXTD=YEAR: 1994/11/16
EXTT0=
EXTT1=
EXTT2=
EXTT3=
PLAYORDER=
